<svg width="512" height="512" viewBox="0 0 512 512" fill="none" xmlns="http://www.w3.org/2000/svg">
<g clip-path="url(#clip0_5_2)">
<circle cx="256" cy="256" r="256" fill="#F0B100"/>
<path d="M156 372H84.1818V139.273H159.182C181.758 139.273 201.076 143.932 217.136 153.25C233.197 162.492 245.508 175.788 254.068 193.136C262.629 210.409 266.909 231.091 266.909 255.182C266.909 279.424 262.591 300.295 253.955 317.795C245.318 335.22 232.742 348.629 216.227 358.023C199.712 367.341 179.636 372 156 372ZM112.364 347H154.182C173.424 347 189.371 343.288 202.023 335.864C214.674 328.439 224.106 317.871 230.318 304.159C236.53 290.447 239.636 274.121 239.636 255.182C239.636 236.394 236.568 220.22 230.432 206.659C224.295 193.023 215.129 182.568 202.932 175.295C190.735 167.947 175.545 164.273 157.364 164.273H112.364V347ZM291.767 164.273V139.273H466.312V164.273H393.131V372H364.949V164.273H291.767Z" fill="white"/>
</g>
<defs>
<clipPath id="clip0_5_2">
<rect width="512" height="512" fill="white"/>
</clipPath>
</defs>
</svg>
